<?xml version="1.0" standalone="no"?>
<!DOCTYPE svg PUBLIC "-//W3C//DTD SVG 20010904//EN"
 "http://www.w3.org/TR/2001/REC-SVG-20010904/DTD/svg10.dtd">
<svg version="1.0" xmlns="http://www.w3.org/2000/svg"
 width="328.000000pt" height="503.000000pt" viewBox="0 0 328.000000 503.000000"
 preserveAspectRatio="xMidYMid meet">

<g transform="translate(0.000000,503.000000) scale(0.100000,-0.100000)"
fill="#000000" stroke="none">
<path d="M2969 5011 c-142 -45 -296 -177 -362 -310 -20 -40 -37 -81 -37 -91 0
-15 -15 -18 -102 -24 -373 -26 -675 -198 -919 -523 -86 -114 -184 -302 -279
-533 -173 -424 -245 -533 -600 -910 -226 -240 -324 -354 -397 -467 -114 -175
-202 -386 -245 -587 -28 -132 -30 -360 -5 -488 79 -400 331 -712 732 -909 244
-119 456 -166 715 -156 225 8 395 52 598 154 339 171 595 469 717 837 87 262
97 451 55 1021 -21 274 -11 449 35 620 32 119 57 178 185 445 179 374 217 503
207 700 -16 276 -144 497 -429 735 l-86 73 50 57 c32 35 103 91 185 146 158
106 173 120 173 158 0 66 -80 88 -191 52z m-663 -644 c-176 -110 -322 -245
-429 -394 -134 -188 -213 -353 -342 -714 -130 -363 -181 -472 -314 -664 -161
-234 -223 -333 -280 -449 -63 -127 -136 -330 -127 -353 14 -35 38 -5 99 120
37 75 114 206 181 305 64 94 167 247 229 340 126 188 188 303 272 507 126 308
248 533 392 726 128 171 296 341 463 468 102 78 109 82 86 46 -101 -154 -150
-244 -216 -400 -23 -55 -100 -224 -170 -375 -262 -567 -291 -662 -350 -1175
-58 -502 -84 -596 -257 -915 -131 -242 -193 -397 -193 -481 0 -28 5 -38 19
-42 30 -7 38 3 71 96 17 48 87 200 155 338 199 402 234 533 300 1134 36 334
124 564 385 1005 67 113 171 304 232 425 60 121 112 222 115 225 3 3 3 -49 0
-115 -10 -205 -44 -323 -204 -705 -154 -367 -195 -508 -212 -715 -9 -118 -7
-179 20 -567 20 -286 -2 -433 -107 -710 -144 -383 -337 -654 -581 -816 -50
-34 -95 -66 -98 -72 -11 -18 4 -58 24 -65 24 -7 120 40 218 107 99 68 252 230
329 349 170 259 289 608 325 955 7 67 9 176 5 270 -19 492 -19 486 -2 584 32
184 95 359 251 690 176 374 199 450 199 645 0 138 -13 207 -59 310 -19 43 -21
57 -11 70 10 14 24 4 107 -77 108 -106 166 -189 209 -300 92 -237 53 -414
-176 -800 -195 -327 -246 -566 -228 -1073 15 -420 11 -724 -10 -845 -47 -271
-158 -498 -350 -715 -191 -216 -432 -336 -721 -360 -223 -18 -512 45 -762 165
-189 90 -283 161 -387 292 -169 211 -254 480 -243 768 14 338 134 567 497 945
436 454 589 661 749 1011 174 380 289 569 440 722 110 112 271 218 405 268 69
26 79 28 52 11z"/>
</g>
</svg>
